<svg width="21" height="24" viewBox="0 0 21 24" fill="none" xmlns="http://www.w3.org/2000/svg">
<path d="M13.3103 14.7874C13.1654 14.74 12.2493 14.3271 12.8217 12.5869H12.8135C14.3058 11.0499 15.4462 8.57684 15.4462 6.14202C15.4462 2.39817 12.9566 0.435547 10.0633 0.435547C7.16812 0.435547 4.69228 2.39726 4.69228 6.14202C4.69228 8.58687 5.82628 11.07 7.32765 12.6033C7.91288 14.1384 6.86639 14.7081 6.64761 14.7874C3.61753 15.884 0.0623779 17.8813 0.0623779 19.8531V20.5923C0.0623779 23.2788 5.27113 23.8895 10.0915 23.8895C14.9193 23.8895 20.0624 23.2788 20.0624 20.5923V19.8531C20.0624 17.8221 16.4899 15.8403 13.3103 14.7874ZM8.28207 22.7263C8.28207 20.4027 9.76156 17.266 9.76156 17.266L8.73786 16.4629C8.73786 15.6953 10.0624 14.8922 10.0624 14.8922C10.0624 14.8922 11.3833 15.7081 11.3833 16.4629L10.3632 17.266C10.3632 17.266 11.8427 20.3909 11.8427 22.7519C11.8427 23.122 8.28207 23.0363 8.28207 22.7263Z" fill="white"/>
</svg>
